<?xml version="1.0" standalone="no"?><!DOCTYPE svg PUBLIC "-//W3C//DTD SVG 1.1//EN" "http://www.w3.org/Graphics/SVG/1.1/DTD/svg11.dtd"><svg t="1603096961002" class="icon" viewBox="0 0 1024 1024" version="1.1" xmlns="http://www.w3.org/2000/svg" p-id="4416" xmlns:xlink="http://www.w3.org/1999/xlink" width="200" height="200"><defs><style type="text/css"></style></defs><path d="M737.006933 530.158933c52.224 40.721067 74.478933 97.553067 43.656534 164.078934-49.937067 107.861333-208.2816 171.9296-349.354667 160.768-165.1712-13.2096-279.688533-74.581333-294.1952-209.032534a88.849067 88.849067 0 0 1-0.4096-4.846933 227.669333 227.669333 0 0 1 5.8368-63.624533 284.330667 284.330667 0 0 1 49.117867-106.564267c3.652267-5.393067 10.205867-14.199467 19.421866-25.258667 15.1552-18.295467 32.529067-36.5568 51.882667-53.691733 39.936-35.293867 83.114667-61.201067 129.365333-73.489067 67.584-17.92 115.677867 7.918933 139.332267 59.050667 1.570133 3.447467 3.003733 6.826667 4.266667 10.205867 23.108267-8.6016 46.455467-13.5168 69.5296-12.970667 33.6896 0.8192 63.624533 13.550933 85.9136 40.0384 12.049067 14.2336 19.182933 31.095467 22.1184 49.493333 2.594133 16.384 1.8432 32.836267-1.2288 49.015467 7.918933 4.642133 16.315733 10.24 24.746666 16.827733z m-96.699733-11.844266c0.580267-1.365333 1.774933-4.778667 3.072-9.6256 3.072-11.776 4.266667-23.6544 2.696533-33.621334a32.392533 32.392533 0 0 0-6.894933-16.247466c-8.9088-10.581333-20.241067-15.428267-35.396267-15.7696-15.086933-0.375467-32.768 3.857067-50.722133 11.332266-10.683733 4.437333-18.875733 8.8064-22.9376 11.3664l-49.7664 31.163734L477.866667 438.237867a92.4672 92.4672 0 0 0-8.192-31.982934c-10.376533-22.391467-25.941333-30.788267-59.869867-21.777066-34.7136 9.216-69.085867 29.866667-101.6832 58.6752-16.520533 14.609067-31.505067 30.378667-44.544 46.08a300.714667 300.714667 0 0 0-16.2816 21.162666 218.453333 218.453333 0 0 0-38.1952 82.1248 160.768 160.768 0 0 0-4.1984 45.704534c9.898667 91.921067 95.573333 137.8304 231.765333 148.718933 115.473067 9.147733 246.033067-43.690667 282.0096-121.412267 15.598933-33.655467 5.870933-58.504533-23.688533-81.578666a158.139733 158.139733 0 0 0-35.293867-20.5824l-33.006933-12.526934 13.585067-32.529066z m6.280533-177.0496l3.8912-68.130134c88.064 4.983467 145.851733 50.005333 165.546667 130.6624l-66.321067 16.213334c-12.356267-50.5856-44.168533-75.3664-103.082666-78.7456z m-0.273066-136.533334l4.437333-68.130133c163.703467 10.6496 266.5472 102.229333 302.045867 268.151467l-66.7648 14.301866c-29.184-136.465067-106.939733-205.687467-239.7184-214.357333z" p-id="4417"></path></svg>