<?xml version="1.0" standalone="no"?><!DOCTYPE svg PUBLIC "-//W3C//DTD SVG 1.1//EN" "http://www.w3.org/Graphics/SVG/1.1/DTD/svg11.dtd"><svg t="1603093687089" class="icon" viewBox="0 0 1024 1024" version="1.1" xmlns="http://www.w3.org/2000/svg" p-id="5516" xmlns:xlink="http://www.w3.org/1999/xlink" width="200" height="200"><defs><style type="text/css"></style></defs><path d="M413.952 751.808a343.04 343.04 0 0 1-342.656-342.656 343.04 343.04 0 0 1 342.656-342.656 343.04 343.04 0 0 1 342.656 342.656 343.04 343.04 0 0 1-342.656 342.656z m0-622.976c-154.624 0-280.32 125.76-280.32 280.32s125.76 280.32 280.32 280.32 280.256-125.76 280.256-280.32-125.696-280.32-280.256-280.32zM939.008 892.032a32 32 0 0 1-45.056 45.44l-223.36-216.384c36.992-18.304 45.056-45.44 45.056-45.44l223.36 216.384z" p-id="5517"></path></svg>